# xmcd
#
# Track frame offsets:
#	150
#	27255
#	47615
#	71320
#	90537
#	115535
#	132317
#	152480
#
# Disc length: 2327 seconds
#
# Revision: 1
# Processed by: cddbd v1.4PL0 Copyright (c) Steve Scherf et al.
# Submitted via: EasyCDDAExtractor 5.0.6
#
DISCID=57091508
DTITLE=Willie Amadeo - Inspirado
DYEAR=1994
DGENRE=Salsa
TTITLE0=Una Bonita Memoria
TTITLE1=Roy El Playboy
TTITLE2=Muñeca De Abril
TTITLE3=Sin Un Adios
TTITLE4=Te Equivocastes
TTITLE5=No Te Detengas A Pensar
TTITLE6=El Gusanito
TTITLE7=Mis Canciones
EXTD=
EXTT0=
EXTT1=
EXTT2=
EXTT3=
EXTT4=
EXTT5=
EXTT6=
EXTT7=
PLAYORDER=
